# File created by Blade
# Date/Time:  Tue Jan 27 18:50:13 2015
#---------------------------------------------------------
:version 1.10
:name HOM
:units
  mass 1.0
  length 1.000000
  angle deg
:documentation
     Acclaim Skeleton File
:root
   axis xyz
   order TX TY TZ RX RY RZ
   position 0.000000 0.000000 0.000000
   orientation 0 0 0
:bonedata
   begin
      id 1
      name Spine_dum
      direction 0.000000 1.000000 0.000000
      length 5.195262
      axis 0.0 0.0 0.0 xyz
   end
   begin
      id 2
      name LeftUpLeg_dum
      direction 1.000000 0.000000 0.000000
      length 3.351363
      axis 0.0 0.0 0.0 xyz
   end
   begin
      id 3
      name RightUpLeg_dum
      direction -1.000000 0.000000 0.000000
      length 3.351363
      axis 0.0 0.0 0.0 xyz
   end
   begin
      id 4
      name Spine
      direction 0.000000 1.000000 0.000000
      length 0.000000
      axis 0.0 0.0 0.0 xyz
      dof rx ry rz
   end
   begin
      id 5
      name Spine_dum1
      direction 0.000000 1.000000 0.000000
      length 15.653875
      axis 0.0 0.0 0.0 xyz
   end
   begin
      id 6
      name Spine_dum2
      direction 0.000000 1.000000 0.000000
      length 10.329768
      axis 0.0 0.0 0.0 xyz
   end
   begin
      id 7
      name Spine_dum3
      direction 0.000000 1.000000 0.000000
      length 10.329768
      axis 0.0 0.0 0.0 xyz
   end
   begin
      id 8
      name Head
      direction 0.000000 1.000000 0.000000
      length 4.527550
      axis 0.0 0.0 0.0 xyz
      dof rx ry rz
   end
   begin
      id 9
      name LeftShoulder
      direction 1.000000 0.000000 0.000000
      length 6.996006
      axis 0.0 0.0 -90.0 xyz
      dof rx ry rz
   end
   begin
      id 10
      name LeftArm
      direction 1.000000 0.000000 0.000000
      length 10.209302
      axis 0.0 0.0 -90.0 xyz
      dof rx ry rz
   end
   begin
      id 11
      name LeftForeArm
      direction 1.000000 0.000000 0.000000
      length 8.563163
      axis 0.0 0.0 -90.0 xyz
      dof ry rz rx
   end
   begin
      id 12
      name LeftHand
      direction 0.000000 0.000000 0.000000
      length 0.000000
      axis 0.0 0.0 -90.0 xyz
      dof rx ry rz
   end
   begin
      id 13
      name LeftHand_dum1
      direction 0.000000 0.000000 0.000000
      length 0.000000
      axis 0.0 0.0 -90.0 xyz
   end
   begin
      id 14
      name LeftHand_dum2
      direction 1.000000 0.000000 0.000000
      length 3.937000
      axis 0.0 0.0 -90.0 xyz
   end
   begin
      id 15
      name LeftHandThumb1
      direction 0.000000 0.000000 1.000000
      length 3.937000
      axis 0.0 0.0 -90.0 xyz
      dof rx rz ry
   end
   begin
      id 16
      name RightShoulder
      direction -1.000000 0.000000 0.000000
      length 6.996006
      axis 0.0 0.0 90.0 xyz
      dof rx ry rz
   end
   begin
      id 17
      name RightArm
      direction -1.000000 0.000000 0.000000
      length 10.209302
      axis 0.0 0.0 90.0 xyz
      dof rx ry rz
   end
   begin
      id 18
      name RightForeArm
      direction -1.000000 0.000000 0.000000
      length 8.563163
      axis 0.0 0.0 90.0 xyz
      dof ry rz rx
   end
   begin
      id 19
      name RightHand
      direction 0.000000 0.000000 0.000000
      length 0.000000
      axis 0.0 0.0 90.0 xyz
      dof rx ry rz
   end
   begin
      id 20
      name RightHand_dum1
      direction 0.000000 0.000000 0.000000
      length 0.000000
      axis 0.0 0.0 90.0 xyz
   end
   begin
      id 21
      name RightHand_dum2
      direction -1.000000 0.000000 0.000000
      length 3.937000
      axis 0.0 0.0 90.0 xyz
   end
   begin
      id 22
      name RightHandThumb1
      direction 0.000000 0.000000 1.000000
      length 3.937000
      axis 0.0 0.0 90.0 xyz
      dof rx rz ry
   end
   begin
      id 23
      name LeftUpLeg
      direction 0.000000 -1.000000 0.000000
      length 16.346831
      axis 0.0 0.0 0.0 xyz
      dof rx ry rz
   end
   begin
      id 24
      name LeftLeg
      direction 0.000000 -1.000000 0.000000
      length 13.959795
      axis 0.0 0.0 0.0 xyz
      dof rx ry rz
   end
   begin
      id 25
      name LeftFoot
      direction 0.000000 -0.258819 0.965926
      length 5.165550
      axis 15.0 0.0 0.0 xyz
      dof rx ry rz
   end
   begin
      id 26
      name LeftToeBase
      direction 0.000000 0.000000 1.000000
      length 2.952750
      axis 0.0 0.0 0.0 xyz
      dof rx ry rz
   end
   begin
      id 27
      name RightUpLeg
      direction 0.000000 -1.000000 0.000000
      length 16.346831
      axis 0.0 0.0 0.0 xyz
      dof rx ry rz
   end
   begin
      id 28
      name RightLeg
      direction 0.000000 -1.000000 0.000000
      length 13.959795
      axis 0.0 0.0 0.0 xyz
      dof rx ry rz
   end
   begin
      id 29
      name RightFoot
      direction 0.000000 -0.258819 0.965926
      length 5.165550
      axis 15.0 0.0 0.0 xyz
      dof rx ry rz
   end
   begin
      id 30
      name RightToeBase
      direction 0.000000 0.000000 1.000000
      length 2.952750
      axis 0.0 0.0 0.0 xyz
      dof rx ry rz
   end
:hierarchy
   begin
      root Spine_dum LeftUpLeg_dum RightUpLeg_dum
      Spine_dum Spine
      LeftUpLeg_dum LeftUpLeg
      RightUpLeg_dum RightUpLeg
      Spine Spine_dum1 Spine_dum2 Spine_dum3
      Spine_dum1 Head
      Spine_dum2 LeftShoulder
      Spine_dum3 RightShoulder
      LeftShoulder LeftArm
      LeftArm LeftForeArm
      LeftForeArm LeftHand
      LeftHand LeftHand_dum1 LeftHand_dum2
      LeftHand_dum1 LeftHandThumb1
      RightShoulder RightArm
      RightArm RightForeArm
      RightForeArm RightHand
      RightHand RightHand_dum1 RightHand_dum2
      RightHand_dum1 RightHandThumb1
      LeftUpLeg LeftLeg
      LeftLeg LeftFoot
      LeftFoot LeftToeBase
      RightUpLeg RightLeg
      RightLeg RightFoot
      RightFoot RightToeBase
   end

# File created by Blade
# Date/Time:  Tue Jan 27 18:50:05 2015
# Frame Rate: 120.000 fps
#------------------------------------------------------
:FULLY-SPECIFIED
:DEGREES
557
root -1.845112 32.194377 -5.919888 -5.266151 44.523277 -11.590663
Spine 5.915136 -15.125406 0.239178
Head 2.937660 1.452656 11.368538
LeftShoulder -7.766499 5.725413 17.999863
LeftArm 30.145185 -15.751713 -77.109664
LeftForeArm -6.785859 0.000000 101.242327
LeftHand -10.293556 -0.000000 14.297183
LeftHandThumb1 -26.253704 0.000000 33.147579
RightShoulder -11.627090 -2.687807 -9.625413
RightArm 12.846614 -35.018933 74.949583
RightForeArm -27.034492 -0.000000 29.271193
RightHand -14.708215 0.000000 11.401480
RightHandThumb1 -24.326973 -0.000000 -32.862282
LeftUpLeg -7.180373 -9.540720 2.081221
LeftLeg 21.187695 -0.000000 -0.000000
LeftFoot -22.055440 1.712450 -21.200261
LeftToeBase 13.000723 -0.000000 -0.000000
RightUpLeg -74.820796 8.524661 4.184938
RightLeg 131.241707 -0.000000 -0.000000
RightFoot 14.847321 -8.981921 1.569165
RightToeBase 8.735979 -0.000000 -0.000000
558
root -1.852014 32.194004 -5.912230 -5.295791 44.536438 -11.640824
Spine 5.865953 -15.194358 0.180268
Head 2.912938 1.507173 11.431012
LeftShoulder -7.764930 5.731259 17.990056
LeftArm 30.192199 -15.785193 -77.111347
LeftForeArm -6.799024 -0.000000 101.226974
LeftHand -10.276993 -0.000000 14.199573
LeftHandThumb1 -26.253704 0.000000 33.147579
RightShoulder -11.675454 -2.619863 -9.615428
RightArm 13.013538 -35.161392 74.791125
RightForeArm -26.914229 0.000000 29.460254
RightHand -14.759702 -0.000000 11.459816
RightHandThumb1 -24.326973 -0.000000 -32.862282
LeftUpLeg -7.188472 -9.512454 2.130681
LeftLeg 21.188771 -0.000000 -0.000000
LeftFoot -22.023815 1.763310 -21.013201
LeftToeBase 12.734688 -0.000000 -0.000000
RightUpLeg -74.851767 8.568365 4.277536
RightLeg 130.142182 -0.000000 -0.000000
RightFoot 13.202083 -10.017840 1.392293
RightToeBase 7.858847 -0.000000 -0.000000
559
root -1.858455 32.191762 -5.904454 -5.335477 44.525548 -11.659075
Spine 5.858264 -15.239688 0.084578
Head 2.864543 1.580458 11.522614
LeftShoulder -7.774196 5.705712 18.002170
LeftArm 30.193910 -15.817557 -77.141259
LeftForeArm -6.879267 -0.000000 101.231295
LeftHand -10.218662 -0.000000 14.034932
LeftHandThumb1 -26.253704 0.000000 33.147579
RightShoulder -11.666840 -2.671097 -9.591049
RightArm 13.206796 -35.114485 74.682686
RightForeArm -27.090190 -0.000000 29.697206
RightHand -14.738701 -0.000000 11.242924
RightHandThumb1 -24.326973 -0.000000 -32.862282
LeftUpLeg -7.153986 -9.445159 2.152716
LeftLeg 21.180636 -0.000000 -0.000000
LeftFoot -21.965179 1.795383 -20.819134
LeftToeBase 12.397844 -0.000000 -0.000000
RightUpLeg -74.870637 8.645156 4.311315
RightLeg 129.004564 -0.000000 -0.000000
RightFoot 11.300210 -10.940072 1.409344
RightToeBase 7.432374 -0.000000 -0.000000
560
root -1.864844 32.189121 -5.895040 -5.365308 44.521659 -11.681265
Spine 5.830597 -15.291231 -0.000793
Head 2.834606 1.690542 11.619619
LeftShoulder -7.820578 5.734605 18.015260
LeftArm 30.243907 -15.837130 -77.205162
LeftForeArm -6.985561 -0.000000 101.230368
LeftHand -10.154154 -0.000000 13.828081
LeftHandThumb1 -26.253704 0.000000 33.147579
RightShoulder -11.678335 -2.672902 -9.567011
RightArm 13.317846 -35.078407 74.602993
RightForeArm -27.217551 -0.000000 29.954018
RightHand -14.789101 -0.000000 11.122736
RightHandThumb1 -24.326973 -0.000000 -32.862282
LeftUpLeg -7.123752 -9.435682 2.171865
LeftLeg 21.157541 -0.000000 -0.000000
LeftFoot -21.950207 1.890221 -20.640256
LeftToeBase 12.280869 -0.000000 -0.000000
RightUpLeg -74.925799 8.716810 4.349435
RightLeg 127.818354 -0.000000 -0.000000
RightFoot 9.387917 -11.774168 1.649836
RightToeBase 7.358622 -0.000000 -0.000000
561
root -1.866695 32.184281 -5.890677 -5.398967 44.498662 -11.676831
Spine 5.841035 -15.319268 -0.072667
Head 2.756753 1.762458 11.638047
LeftShoulder -7.905964 5.812838 17.980852
LeftArm 30.376049 -15.850673 -77.266141
LeftForeArm -7.134725 0.000000 101.231281
LeftHand -10.099045 -0.000000 13.565528
LeftHandThumb1 -26.253704 0.000000 33.147579
RightShoulder -11.746621 -2.493154 -9.618519
RightArm 13.287420 -35.168285 74.617699
RightForeArm -27.257802 -0.000000 30.147418
RightHand -14.812926 0.000000 10.984529
RightHandThumb1 -24.326973 -0.000000 -32.862282
LeftUpLeg -7.065051 -9.490307 2.144860
LeftLeg 21.136591 -0.000000 -0.000000
LeftFoot -21.959477 2.142472 -20.363938
LeftToeBase 11.910357 -0.000000 -0.000000
RightUpLeg -74.986037 8.782144 4.388863
RightLeg 126.601143 -0.000000 -0.000000
RightFoot 7.714907 -12.564008 1.483332
RightToeBase 7.049930 -0.000000 -0.000000
562
root -1.868973 32.179158 -5.885517 -5.413811 44.485168 -11.662665
Spine 5.823352 -15.337801 -0.142931
Head 2.681637 1.776444 11.617042
LeftShoulder -7.908624 5.726787 18.015698
LeftArm 30.248454 -15.884696 -77.300697
LeftForeArm -7.262715 0.000000 101.273086
LeftHand -10.052918 -0.000000 13.352891
LeftHandThumb1 -26.253704 0.000000 33.147579
RightShoulder -11.786019 -2.488220 -9.635969
RightArm 13.339722 -35.091897 74.590015
RightForeArm -27.198657 -0.000000 30.448506
RightHand -14.917316 -0.000000 11.000552
RightHandThumb1 -24.326973 -0.000000 -32.862282
LeftUpLeg -7.029832 -9.570458 2.117063
LeftLeg 21.137554 -0.000000 -0.000000
LeftFoot -21.999279 2.339328 -20.181068
LeftToeBase 11.797543 -0.000000 -0.000000
RightUpLeg -75.085925 8.838997 4.414768
RightLeg 125.336412 -0.000000 -0.000000
RightFoot 6.199000 -13.344862 1.726826
RightToeBase 6.380398 -0.000000 -0.000000
